<?xml version="1.0" encoding="UTF-8"?>
<svg xmlns="http://www.w3.org/2000/svg" version="1.1" viewBox="0 0 3000 3000">
  <defs>
    <style>
      .cls-1, .cls-2, .cls-3, .cls-4 {
        fill: #000;
      }

      .cls-1, .cls-5, .cls-4, .cls-6, .cls-7, .cls-8, .cls-9 {
        stroke-miterlimit: 10;
      }

      .cls-1, .cls-4, .cls-6, .cls-8 {
        stroke: #000;
      }

      .cls-2, .cls-10, .cls-11, .cls-12, .cls-13 {
        stroke-width: 0px;
      }

      .cls-14 {
        font-family: MyriadPro-Regular, 'Myriad Pro';
        font-size: 14px;
      }

      .cls-14, .cls-13 {
        fill: #201600;
      }

      .cls-5 {
        stroke-width: .5px;
      }

      .cls-5, .cls-6, .cls-7, .cls-8, .cls-9 {
        fill: none;
      }

      .cls-5, .cls-7 {
        stroke: #201600;
      }

      .cls-10 {
        fill: #a1b59c;
      }

      .cls-3 {
        font-family: RegionalAmbassadorship-Regular, 'Regional Ambassadorship';
        font-size: 250px;
        letter-spacing: .2em;
      }

      .cls-4, .cls-15 {
        display: none;
      }

      .cls-6 {
        stroke-width: 4px;
      }

      .cls-11 {
        fill: #fff5e1;
      }

      .cls-12 {
        fill: #708eab;
      }

      .cls-8 {
        stroke-width: 5px;
      }

      .cls-9 {
        stroke: #708eab;
        stroke-width: 9px;
      }
    </style>
  </defs>
  <g id="Dimensions" class="cls-15">
    <polygon class="cls-10" points="3000 3000 0 3000 -7 -17 3000 0 3000 3000"/>
    <g id="Manual_Dimension" data-name="Manual Dimension">
      <line class="cls-5" x1="1500" y1="138" x2="1500" y2="-132"/>
      <line class="cls-5" y1="139" y2="-132"/>
      <text class="cls-14" transform="translate(723.96 -132)"><tspan x="0" y="0" xml:space="preserve"> 1500 px </tspan></text>
      <g>
        <line class="cls-7" x1="7.18" y1="-123" x2="1492.82" y2="-123"/>
        <polygon class="cls-13" points="8.63 -118.01 0 -123 8.63 -127.99 8.63 -118.01"/>
        <polygon class="cls-13" points="1491.37 -118.01 1500 -123 1491.37 -127.99 1491.37 -118.01"/>
      </g>
    </g>
    <g id="Manual_Dimension-2" data-name="Manual Dimension">
      <line class="cls-5" x1="3005.5" y1="1500" x2="3151" y2="1500"/>
      <line class="cls-5" x1="3005.5" x2="3151"/>
      <text class="cls-14" transform="translate(3160.25 776.04) rotate(-90)"><tspan x="0" y="0" xml:space="preserve"> 1500 px </tspan></text>
      <g>
        <line class="cls-7" x1="3142" y1="7.18" x2="3142" y2="1492.82"/>
        <polygon class="cls-13" points="3137.01 8.63 3142 0 3146.99 8.63 3137.01 8.63"/>
        <polygon class="cls-13" points="3137.01 1491.37 3142 1500 3146.99 1491.37 3137.01 1491.37"/>
      </g>
    </g>
  </g>
  <g id="_Слой_4" data-name="Слой 4">
    <circle class="cls-11" cx="1508" cy="1320" r="650"/>
  </g>
  <g id="_Слой_1" data-name="Слой 1" class="cls-15">
    <g>
      <rect class="cls-2" x="1228.5" y="1986.5" width="170" height="62"/>
      <path class="cls-2" d="M1398,1987v61h-169v-61h169M1399,1986h-171v63h171v-63h0Z"/>
    </g>
    <g>
      <rect class="cls-2" x="1615.5" y="1986.5" width="171" height="63"/>
      <path class="cls-2" d="M1786,1987v62h-170v-62h170M1787,1986h-172v64h172v-64h0Z"/>
    </g>
    <g>
      <path class="cls-2" d="M1255.5,1985.5V825.5h8.58c2.22,2.93,4.42,5.88,6.63,8.82,3.84,5.12,7.81,10.42,11.79,15.59v1135.59h-27Z"/>
      <path class="cls-2" d="M1263.83,826c2.17,2.87,4.33,5.76,6.49,8.64,3.8,5.08,7.73,10.32,11.68,15.44v1134.92h-26V826h7.83M1264.33,825h-9.33v1161h28V849.74c-6.31-8.18-12.44-16.5-18.67-24.74h0Z"/>
    </g>
    <g>
      <path class="cls-2" d="M1344.5,1985.5V825.5h8.58c2.22,2.93,4.42,5.88,6.63,8.82,3.84,5.12,7.81,10.42,11.79,15.59v1135.59h-27Z"/>
      <path class="cls-2" d="M1352.83,826c2.17,2.87,4.33,5.76,6.49,8.64,3.8,5.08,7.73,10.32,11.68,15.44v1134.92h-26V826h7.83M1353.33,825h-9.33v1161h28V849.74c-6.31-8.18-12.44-16.5-18.67-24.74h0Z"/>
    </g>
    <path class="cls-2" d="M1651,825h-9v1161h27V849.74c-6.08-8.18-11.99-16.5-18-24.74Z"/>
    <path class="cls-2" d="M1741,827h-9v1161h27V851.74c-6.08-8.18-11.99-16.5-18-24.74Z"/>
    <g>
      <rect class="cls-2" x="1255.5" y="897.5" width="116" height="8"/>
      <path class="cls-2" d="M1371,898v7h-115v-7h115M1372,897h-117v9h117v-9h0Z"/>
    </g>
    <g>
      <rect class="cls-2" x="1642.5" y="897.5" width="116" height="8"/>
      <path class="cls-2" d="M1758,898v7h-115v-7h115M1759,897h-117v9h117v-9h0Z"/>
    </g>
    <g>
      <rect class="cls-2" x="1255.5" y="960.5" width="116" height="8"/>
      <path class="cls-2" d="M1371,961v7h-115v-7h115M1372,960h-117v9h117v-9h0Z"/>
    </g>
    <g>
      <rect class="cls-2" x="1642.5" y="960.5" width="116" height="8"/>
      <path class="cls-2" d="M1758,961v7h-115v-7h115M1759,960h-117v9h117v-9h0Z"/>
    </g>
    <rect class="cls-2" x="1255" y="1761" width="117" height="37"/>
    <rect class="cls-2" x="1642" y="1761" width="117" height="37"/>
    <polygon class="cls-1" points="1283 1798 1283 1815.04 1335.91 1986 1344 1986 1344 1968.01 1291.01 1798 1283 1798"/>
    <polygon class="cls-1" points="1283 906 1283 915.01 1335.72 960 1344 960 1344 951.11 1291.01 906 1283 906"/>
    <polygon class="cls-1" points="1669 906.5 1669 915.51 1723.01 960.5 1731.5 960.5 1731.5 951.61 1677.21 906.5 1669 906.5"/>
    <polygon class="cls-1" points="1670.5 1797.5 1670.5 1814.54 1723.41 1985.5 1731.5 1985.5 1731.5 1967.51 1678.51 1797.5 1670.5 1797.5"/>
    <rect class="cls-2" x="463" y="1671" width="792" height="18"/>
    <rect class="cls-2" x="1759" y="1671" width="792" height="18"/>
    <rect class="cls-4" x="1161.5" y="1844.5" width="791" height="17"/>
    <rect class="cls-2" x="463" y="1599" width="792" height="18"/>
    <rect class="cls-2" x="1759" y="1599" width="792" height="18"/>
    <polygon class="cls-2" points="463 1671 463 1662 490 1617 499 1617 499 1626 472 1671 463 1671"/>
    <polygon class="cls-2" points="499 1617 499 1626 526 1671 535 1671 535 1662.12 508 1617 499 1617"/>
    <polygon class="cls-2" points="535 1671 535 1662 562 1617 571 1617 571 1626 544 1671 535 1671"/>
    <polygon class="cls-2" points="571 1617 571 1626 598 1671 607 1671 607 1662.12 580 1617 571 1617"/>
    <polygon class="cls-2" points="607 1671 607 1662 634 1617 643 1617 643 1626 616 1671 607 1671"/>
    <polygon class="cls-2" points="643 1617 643 1626 670 1671 679 1671 679 1662.12 652 1617 643 1617"/>
    <polygon class="cls-2" points="679 1671 679 1662 706 1617 715 1617 715 1626 688 1671 679 1671"/>
    <polygon class="cls-2" points="715 1617 715 1626 742 1671 751 1671 751 1662.12 724 1617 715 1617"/>
    <polygon class="cls-2" points="751 1671 751 1662 778 1617 787 1617 787 1626 760 1671 751 1671"/>
    <polygon class="cls-2" points="787 1617 787 1626 814 1671 823 1671 823 1662.12 796 1617 787 1617"/>
    <polygon class="cls-2" points="823 1671 823 1662 850 1617 859 1617 859 1626 832 1671 823 1671"/>
    <polygon class="cls-2" points="859 1617 859 1626 886 1671 895 1671 895 1662.12 868 1617 859 1617"/>
    <polygon class="cls-2" points="895 1671 895 1662 922 1617 931 1617 931 1626 904 1671 895 1671"/>
    <polygon class="cls-2" points="931 1617 931 1626 958 1671 967 1671 967 1662.12 940 1617 931 1617"/>
    <polygon class="cls-2" points="967 1671 967 1662 994 1617 1003 1617 1003 1626 976 1671 967 1671"/>
    <polygon class="cls-2" points="1003 1617 1003 1626 1030 1671 1039 1671 1039 1662.12 1012 1617 1003 1617"/>
    <polygon class="cls-2" points="1039 1671 1039 1662 1066 1617 1075 1617 1075 1626 1048 1671 1039 1671"/>
    <polygon class="cls-2" points="1075 1617 1075 1626 1102 1671 1111 1671 1111 1662.12 1084 1617 1075 1617"/>
    <polygon class="cls-2" points="1111 1671 1111 1662 1138 1617 1147 1617 1147 1626 1120 1671 1111 1671"/>
    <polygon class="cls-2" points="1147 1617 1147 1626 1174 1671 1183 1671 1183 1662.12 1156 1617 1147 1617"/>
    <polygon class="cls-2" points="1183 1671 1183 1662 1210 1617 1219 1617 1219 1626 1192 1671 1183 1671"/>
    <polygon class="cls-2" points="1219 1617 1219 1626 1246 1671 1255 1671 1255 1662.12 1228 1617 1219 1617"/>
    <polygon class="cls-2" points="1759 1671 1759 1662 1786 1617 1795 1617 1795 1626 1768 1671 1759 1671"/>
    <polygon class="cls-2" points="1795 1617 1795 1626 1822 1671 1831 1671 1831 1662.12 1804 1617 1795 1617"/>
    <polygon class="cls-2" points="1831 1671 1831 1662 1858 1617 1867 1617 1867 1626 1840 1671 1831 1671"/>
    <polygon class="cls-2" points="1867 1617 1867 1626 1894 1671 1903 1671 1903 1662.12 1876 1617 1867 1617"/>
    <polygon class="cls-2" points="1903 1671 1903 1662 1930 1617 1939 1617 1939 1626 1912 1671 1903 1671"/>
    <polygon class="cls-2" points="1939 1617 1939 1626 1966 1671 1975 1671 1975 1662.12 1948 1617 1939 1617"/>
    <polygon class="cls-2" points="1975 1671 1975 1662 2002 1617 2011 1617 2011 1626 1984 1671 1975 1671"/>
    <polygon class="cls-2" points="2011 1617 2011 1626 2038 1671 2047 1671 2047 1662.12 2020 1617 2011 1617"/>
    <polygon class="cls-2" points="2047 1671 2047 1662 2074 1617 2083 1617 2083 1626 2056 1671 2047 1671"/>
    <polygon class="cls-2" points="2083 1617 2083 1626 2110 1671 2119 1671 2119 1662.12 2092 1617 2083 1617"/>
    <polygon class="cls-2" points="2119 1671 2119 1662 2146 1617 2155 1617 2155 1626 2128 1671 2119 1671"/>
    <polygon class="cls-2" points="2155 1617 2155 1626 2182 1671 2191 1671 2191 1662.12 2164 1617 2155 1617"/>
    <polygon class="cls-2" points="2191 1671 2191 1662 2218 1617 2227 1617 2227 1626 2200 1671 2191 1671"/>
    <polygon class="cls-2" points="2227 1617 2227 1626 2254 1671 2263 1671 2263 1662.12 2236 1617 2227 1617"/>
    <polygon class="cls-2" points="2263 1671 2263 1662 2290 1617 2299 1617 2299 1626 2272 1671 2263 1671"/>
    <polygon class="cls-2" points="2299 1617 2299 1626 2326 1671 2335 1671 2335 1662.12 2308 1617 2299 1617"/>
    <polygon class="cls-2" points="2335 1671 2335 1662 2362 1617 2371 1617 2371 1626 2344 1671 2335 1671"/>
    <polygon class="cls-2" points="2371 1617 2371 1626 2398 1671 2407 1671 2407 1662.12 2380 1617 2371 1617"/>
    <polygon class="cls-2" points="2407 1671 2407 1662 2434 1617 2443 1617 2443 1626 2416 1671 2407 1671"/>
    <polygon class="cls-2" points="2443 1617 2443 1626 2470 1671 2479 1671 2479 1662.12 2452 1617 2443 1617"/>
    <polygon class="cls-2" points="2479 1671 2479 1662 2506 1617 2515 1617 2515 1626 2488 1671 2479 1671"/>
    <polygon class="cls-2" points="2515 1617 2515 1626 2542 1671 2551 1671 2551 1662.12 2524 1617 2515 1617"/>
    <polygon class="cls-2" points="1363 1671 1363 1662 1390 1617 1399 1617 1399 1626 1372 1671 1363 1671"/>
    <polygon class="cls-2" points="1399 1617 1399 1626 1426 1671 1435 1671 1435 1662.12 1408 1617 1399 1617"/>
    <polygon class="cls-2" points="1435 1671 1435 1662 1462 1617 1471 1617 1471 1626 1444 1671 1435 1671"/>
    <polygon class="cls-2" points="1471 1617 1471 1626 1498 1671 1507 1671 1507 1662.12 1480 1617 1471 1617"/>
    <polygon class="cls-2" points="1507 1671 1507 1662 1534 1617 1543 1617 1543 1626 1516 1671 1507 1671"/>
    <polygon class="cls-2" points="1543 1617 1543 1626 1570 1671 1579 1671 1579 1662.12 1552 1617 1543 1617"/>
    <polygon class="cls-2" points="1579 1671 1579 1662 1606 1617 1615 1617 1615 1626 1588 1671 1579 1671"/>
    <polygon class="cls-2" points="1615 1617 1615 1626 1642 1671 1651 1671 1651 1662.12 1624 1617 1615 1617"/>
    <rect class="cls-2" x="1372" y="1671" width="270" height="18"/>
    <rect class="cls-2" x="1372" y="1599" width="270" height="18"/>
    <rect class="cls-2" x="1307" y="1155" width="20" height="216" transform="translate(658.61 -438.82) rotate(25.05)"/>
    <rect class="cls-2" x="1690.57" y="1154.7" width="20" height="216" transform="translate(694.56 -601.25) rotate(25.05)"/>
    <path class="cls-8" d="M1370,969s130.33,175.5,276,0"/>
    <line class="cls-8" x1="1508" y1="1049.65" x2="1507" y2="1599"/>
    <line class="cls-8" x1="1399" y1="1000" x2="1399" y2="1599"/>
    <line class="cls-8" x1="1615.5" y1="1000" x2="1615.5" y2="1599"/>
    <g>
      <line class="cls-9" x1="1259.51" y1="825" x2="1256.51" y2="1986.5"/>
      <line class="cls-12" x1="1259.51" y1="825" x2="1256.51" y2="1986.5"/>
    </g>
    <line class="cls-8" x1="1453.5" y1="1034.87" x2="1453" y2="1599"/>
    <line class="cls-8" x1="1558.77" y1="1038.06" x2="1558.27" y2="1602.2"/>
    <path class="cls-6" d="M1257,969s-224.78,518.14-793,632"/>
    <path class="cls-6" d="M1756.95,968.86c37.75,87.01,243.04,521.8,793,632"/>
    <line class="cls-6" x1="607" y1="1561.86" x2="607" y2="1601"/>
    <line class="cls-6" x1="679" y1="1533.59" x2="679" y2="1601"/>
    <line class="cls-6" x1="751" y1="1498.91" x2="751" y2="1601"/>
    <line class="cls-6" x1="823" y1="1457.16" x2="823" y2="1601"/>
    <line class="cls-6" x1="895" y1="1407.5" x2="895" y2="1601"/>
    <line class="cls-6" x1="967" y1="1348.89" x2="967" y2="1601"/>
    <line class="cls-6" x1="1039" y1="1279.81" x2="1039" y2="1601"/>
    <line class="cls-6" x1="1111" y1="1198.02" x2="1111" y2="1601"/>
    <line class="cls-6" x1="1183" y1="1099.55" x2="1183" y2="1601"/>
    <line class="cls-6" x1="1831" y1="1107" x2="1831" y2="1600.86"/>
    <line class="cls-6" x1="1903" y1="1209" x2="1903" y2="1600.86"/>
    <line class="cls-6" x1="1975" y1="1290" x2="1975" y2="1600.86"/>
    <line class="cls-6" x1="2047" y1="1358" x2="2047" y2="1600.86"/>
    <line class="cls-6" x1="2116" y1="1413" x2="2116.47" y2="1602.2"/>
    <line class="cls-6" x1="2191" y1="1463" x2="2191" y2="1602.2"/>
    <line class="cls-6" x1="2263" y1="1503" x2="2263" y2="1602.2"/>
    <line class="cls-6" x1="2335" y1="1536" x2="2335" y2="1602.2"/>
    <line class="cls-6" x1="2407" y1="1561.74" x2="2407" y2="1602.2"/>
    <rect class="cls-2" x="463" y="1689" width="27" height="360"/>
    <polygon class="cls-2" points="724 1689 751 1689 490 1905 490 1878.04 724 1689"/>
    <polyline class="cls-2" points="525.91 1689 544.3 1689 544.3 1834.17 525.91 1849.02"/>
    <polyline class="cls-2" points="597.91 1689 616.17 1689 616.17 1776.11 597.91 1790.86"/>
    <polyline class="cls-2" points="670.17 1689 687.91 1689 687.91 1718.15 670.17 1732.48"/>
    <rect class="cls-2" x="2524" y="1689" width="27" height="360"/>
    <polygon class="cls-2" points="2289.99 1689 2263 1689 2523.91 1905.11 2523.91 1878.13 2289.99 1689"/>
    <polyline class="cls-2" points="2488 1689 2469 1689 2469 1834.26 2488 1849.13"/>
    <polyline class="cls-2" points="2416 1689 2398 1689 2397.74 1776.22 2416 1790.97"/>
    <polyline class="cls-2" points="2343 1689 2325 1689 2325 1718.9 2343 1733.59"/>
    <line class="cls-12" x1="1255" y1="825" x2="1255" y2="1986"/>
    <g>
      <line class="cls-9" x1="1646.07" y1="824.79" x2="1642.5" y2="1986.5"/>
      <line class="cls-12" x1="1646.07" y1="824.79" x2="1642.5" y2="1986.5"/>
    </g>
    <line class="cls-9" x1="1228" y1="1990.5" x2="1399" y2="1990.5"/>
    <line class="cls-9" x1="1232.5" y1="1986" x2="1232.5" y2="2049"/>
    <line class="cls-9" x1="1619.5" y1="1987" x2="1619.5" y2="2050"/>
    <line class="cls-9" x1="1616" y1="1990.5" x2="1787" y2="1990.5"/>
    <line class="cls-9" x1="463" y1="1603.5" x2="1253" y2="1603.5"/>
    <line class="cls-9" x1="1506.5" y1="1603.5" x2="1640" y2="1603.5"/>
    <path class="cls-9" d="M2411,1617.5"/>
    <path class="cls-9" d="M2333,1618.5"/>
    <line class="cls-9" x1="1904" y1="1603.5" x2="2551" y2="1603.5"/>
    <line class="cls-9" x1="467.5" y1="2049.5" x2="467.5" y2="1671"/>
    <path class="cls-9" d="M2528.5,1671.4"/>
    <path class="cls-9" d="M2528.5,2049.9"/>
    <rect class="cls-12" x="2524" y="1671" width="9" height="378"/>
    <text class="cls-3" transform="translate(847.61 2298.41)"><tspan x="0" y="0">Dealoff.to</tspan></text>
  </g>
</svg>