<?xml version="1.0" encoding="UTF-8"?>
<svg xmlns="http://www.w3.org/2000/svg" version="1.1" viewBox="0 0 3000 3000">
  <defs>
    <style>
      .cls-1, .cls-2, .cls-3, .cls-4 {
        fill: #000;
      }

      .cls-1, .cls-4, .cls-5, .cls-6 {
        stroke: #000;
      }

      .cls-1, .cls-4, .cls-5, .cls-6, .cls-7 {
        stroke-miterlimit: 10;
      }

      .cls-2, .cls-8, .cls-9, .cls-10 {
        stroke-width: 0px;
      }

      .cls-8 {
        fill: #a1b59c;
      }

      .cls-3 {
        font-family: RegionalAmbassadorship-Regular, 'Regional Ambassadorship';
        font-size: 250px;
        letter-spacing: .2em;
      }

      .cls-4, .cls-11 {
        display: none;
      }

      .cls-5 {
        stroke-width: 4px;
      }

      .cls-5, .cls-6, .cls-7 {
        fill: none;
      }

      .cls-9 {
        fill: #fff5e1;
      }

      .cls-10 {
        fill: #708eab;
      }

      .cls-6 {
        stroke-width: 5px;
      }

      .cls-7 {
        stroke: #708eab;
        stroke-width: 9px;
      }
    </style>
  </defs>
  <g id="Dimensions">
    <polygon class="cls-8" points="3000 3000 0 3000 -7 -17 3000 0 3000 3000"/>
  </g>
  <g id="_Слой_4" data-name="Слой 4" class="cls-11">
    <circle class="cls-9" cx="1549" cy="1143" r="650"/>
  </g>
  <g id="_Слой_1" data-name="Слой 1" class="cls-11">
    <g>
      <rect class="cls-2" x="1269.5" y="1809.5" width="170" height="62"/>
      <path class="cls-2" d="M1439,1810v61h-169v-61h169M1440,1809h-171v63h171v-63h0Z"/>
    </g>
    <g>
      <rect class="cls-2" x="1656.5" y="1809.5" width="171" height="63"/>
      <path class="cls-2" d="M1827,1810v62h-170v-62h170M1828,1809h-172v64h172v-64h0Z"/>
    </g>
    <g>
      <path class="cls-2" d="M1296.5,1808.5V648.5h8.58c2.22,2.93,4.42,5.88,6.63,8.82,3.84,5.12,7.81,10.42,11.79,15.59v1135.59h-27Z"/>
      <path class="cls-2" d="M1304.83,649c2.17,2.87,4.33,5.76,6.49,8.64,3.8,5.08,7.73,10.32,11.68,15.44v1134.92h-26V649h7.83M1305.33,648h-9.33v1161h28V672.74c-6.31-8.18-12.44-16.5-18.67-24.74h0Z"/>
    </g>
    <g>
      <path class="cls-2" d="M1385.5,1808.5V648.5h8.58c2.21,2.93,4.41,5.86,6.62,8.8,3.84,5.13,7.82,10.44,11.8,15.6v1135.59h-27Z"/>
      <path class="cls-2" d="M1393.83,649c2.17,2.87,4.33,5.75,6.49,8.64,3.8,5.08,7.74,10.32,11.68,15.44v1134.92h-26V649h7.83M1394.33,648h-9.33v1161h28V672.74c-6.31-8.18-12.44-16.5-18.67-24.74h0Z"/>
    </g>
    <path class="cls-2" d="M1692,648h-9v1161h27V672.74c-6.08-8.18-11.99-16.5-18-24.74Z"/>
    <path class="cls-2" d="M1782,650h-9v1161h27V674.74c-6.08-8.18-11.99-16.5-18-24.74Z"/>
    <g>
      <rect class="cls-2" x="1296.5" y="720.5" width="116" height="8"/>
      <path class="cls-2" d="M1412,721v7h-115v-7h115M1413,720h-117v9h117v-9h0Z"/>
    </g>
    <g>
      <rect class="cls-2" x="1683.5" y="720.5" width="116" height="8"/>
      <path class="cls-2" d="M1799,721v7h-115v-7h115M1800,720h-117v9h117v-9h0Z"/>
    </g>
    <g>
      <rect class="cls-2" x="1296.5" y="783.5" width="116" height="8"/>
      <path class="cls-2" d="M1412,784v7h-115v-7h115M1413,783h-117v9h117v-9h0Z"/>
    </g>
    <g>
      <rect class="cls-2" x="1683.5" y="783.5" width="116" height="8"/>
      <path class="cls-2" d="M1799,784v7h-115v-7h115M1800,783h-117v9h117v-9h0Z"/>
    </g>
    <rect class="cls-2" x="1296" y="1584" width="117" height="37"/>
    <rect class="cls-2" x="1683" y="1584" width="117" height="37"/>
    <polygon class="cls-1" points="1324 1621 1324 1638.04 1376.91 1809 1385 1809 1385 1791.01 1332.01 1621 1324 1621"/>
    <polygon class="cls-1" points="1324 729 1324 738.01 1376.72 783 1385 783 1385 774.11 1332.01 729 1324 729"/>
    <polygon class="cls-1" points="1710 729.5 1710 738.51 1764.01 783.5 1772.5 783.5 1772.5 774.61 1718.21 729.5 1710 729.5"/>
    <polygon class="cls-1" points="1711.5 1620.5 1711.5 1637.54 1764.41 1808.5 1772.5 1808.5 1772.5 1790.51 1719.51 1620.5 1711.5 1620.5"/>
    <rect class="cls-2" x="504" y="1494" width="792" height="18"/>
    <rect class="cls-2" x="1800" y="1494" width="792" height="18"/>
    <rect class="cls-4" x="1208.5" y="1494.5" width="791" height="17"/>
    <rect class="cls-2" x="504" y="1422" width="792" height="18"/>
    <rect class="cls-2" x="1800" y="1422" width="792" height="18"/>
    <polygon class="cls-2" points="504 1494 504 1485 531 1440 540 1440 540 1449 513 1494 504 1494"/>
    <polygon class="cls-2" points="540 1440 540 1449 567 1494 576 1494 576 1485.12 549 1440 540 1440"/>
    <polygon class="cls-2" points="576 1494 576 1485 603 1440 612 1440 612 1449 585 1494 576 1494"/>
    <polygon class="cls-2" points="612 1440 612 1449 639 1494 648 1494 648 1485.13 621 1440 612 1440"/>
    <polygon class="cls-2" points="648 1494 648 1485 675 1440 684 1440 684 1449 657 1494 648 1494"/>
    <polygon class="cls-2" points="684 1440 684 1449 711 1494 720 1494 720 1485.12 693 1440 684 1440"/>
    <polygon class="cls-2" points="720 1494 720 1485 747 1440 756 1440 756 1449 729 1494 720 1494"/>
    <polygon class="cls-2" points="756 1440 756 1449 783 1494 792 1494 792 1485.13 765 1440 756 1440"/>
    <polygon class="cls-2" points="792 1494 792 1485 819 1440 828 1440 828 1449 801 1494 792 1494"/>
    <polygon class="cls-2" points="828 1440 828 1449 855 1494 864 1494 864 1485.12 837 1440 828 1440"/>
    <polygon class="cls-2" points="864 1494 864 1485 891 1440 900 1440 900 1449 873 1494 864 1494"/>
    <polygon class="cls-2" points="900 1440 900 1449 927 1494 936 1494 936 1485.13 909 1440 900 1440"/>
    <polygon class="cls-2" points="936 1494 936 1485 963 1440 972 1440 972 1449 945 1494 936 1494"/>
    <polygon class="cls-2" points="972 1440 972 1449 999 1494 1008 1494 1008 1485.12 981 1440 972 1440"/>
    <polygon class="cls-2" points="1008 1494 1008 1485 1035 1440 1044 1440 1044 1449 1017 1494 1008 1494"/>
    <polygon class="cls-2" points="1044 1440 1044 1449 1071 1494 1080 1494 1080 1485.13 1053 1440 1044 1440"/>
    <polygon class="cls-2" points="1080 1494 1080 1485 1107 1440 1116 1440 1116 1449 1089 1494 1080 1494"/>
    <polygon class="cls-2" points="1116 1440 1116 1449 1143 1494 1152 1494 1152 1485.12 1125 1440 1116 1440"/>
    <polygon class="cls-2" points="1152 1494 1152 1485 1179 1440 1188 1440 1188 1449 1161 1494 1152 1494"/>
    <polygon class="cls-2" points="1188 1440 1188 1449 1215 1494 1224 1494 1224 1485.13 1197 1440 1188 1440"/>
    <polygon class="cls-2" points="1224 1494 1224 1485 1251 1440 1260 1440 1260 1449 1233 1494 1224 1494"/>
    <polygon class="cls-2" points="1260 1440 1260 1449 1287 1494 1296 1494 1296 1485.13 1269 1440 1260 1440"/>
    <polygon class="cls-2" points="1800 1494 1800 1485 1827 1440 1836 1440 1836 1449 1809 1494 1800 1494"/>
    <polygon class="cls-2" points="1836 1440 1836 1449 1863 1494 1872 1494 1872 1485.12 1845 1440 1836 1440"/>
    <polygon class="cls-2" points="1872 1494 1872 1485 1899 1440 1908 1440 1908 1449 1881 1494 1872 1494"/>
    <polygon class="cls-2" points="1908 1440 1908 1449 1935 1494 1944 1494 1944 1485.13 1917 1440 1908 1440"/>
    <polygon class="cls-2" points="1944 1494 1944 1485 1971 1440 1980 1440 1980 1449 1953 1494 1944 1494"/>
    <polygon class="cls-2" points="1980 1440 1980 1449 2007 1494 2016 1494 2016 1485.12 1989 1440 1980 1440"/>
    <polygon class="cls-2" points="2016 1494 2016 1485 2043 1440 2052 1440 2052 1449 2025 1494 2016 1494"/>
    <polygon class="cls-2" points="2052 1440 2052 1449 2079 1494 2088 1494 2088 1485.13 2061 1440 2052 1440"/>
    <polygon class="cls-2" points="2088 1494 2088 1485 2115 1440 2124 1440 2124 1449 2097 1494 2088 1494"/>
    <polygon class="cls-2" points="2124 1440 2124 1449 2151 1494 2160 1494 2160 1485.12 2133 1440 2124 1440"/>
    <polygon class="cls-2" points="2160 1494 2160 1485 2187 1440 2196 1440 2196 1449 2169 1494 2160 1494"/>
    <polygon class="cls-2" points="2196 1440 2196 1449 2223 1494 2232 1494 2232 1485.13 2205 1440 2196 1440"/>
    <polygon class="cls-2" points="2232 1494 2232 1485 2259 1440 2268 1440 2268 1449 2241 1494 2232 1494"/>
    <polygon class="cls-2" points="2268 1440 2268 1449 2295 1494 2304 1494 2304 1485.12 2277 1440 2268 1440"/>
    <polygon class="cls-2" points="2304 1494 2304 1485 2331 1440 2340 1440 2340 1449 2313 1494 2304 1494"/>
    <polygon class="cls-2" points="2340 1440 2340 1449 2367 1494 2376 1494 2376 1485.13 2349 1440 2340 1440"/>
    <polygon class="cls-2" points="2376 1494 2376 1485 2403 1440 2412 1440 2412 1449 2385 1494 2376 1494"/>
    <polygon class="cls-2" points="2412 1440 2412 1449 2439 1494 2448 1494 2448 1485.12 2421 1440 2412 1440"/>
    <polygon class="cls-2" points="2448 1494 2448 1485 2475 1440 2484 1440 2484 1449 2457 1494 2448 1494"/>
    <polygon class="cls-2" points="2484 1440 2484 1449 2511 1494 2520 1494 2520 1485.13 2493 1440 2484 1440"/>
    <polygon class="cls-2" points="2520 1494 2520 1485 2547 1440 2556 1440 2556 1449 2529 1494 2520 1494"/>
    <polygon class="cls-2" points="2556 1440 2556 1449 2583 1494 2592 1494 2592 1485.12 2565 1440 2556 1440"/>
    <polygon class="cls-2" points="1404 1494 1404 1485 1431 1440 1440 1440 1440 1449 1413 1494 1404 1494"/>
    <polygon class="cls-2" points="1440 1440 1440 1449 1467 1494 1476 1494 1476 1485.12 1449 1440 1440 1440"/>
    <polygon class="cls-2" points="1476 1494 1476 1485 1503 1440 1512 1440 1512 1449 1485 1494 1476 1494"/>
    <polygon class="cls-2" points="1512 1440 1512 1449 1539 1494 1548 1494 1548 1485.13 1521 1440 1512 1440"/>
    <polygon class="cls-2" points="1548 1494 1548 1485 1575 1440 1584 1440 1584 1449 1557 1494 1548 1494"/>
    <polygon class="cls-2" points="1584 1440 1584 1449 1611 1494 1620 1494 1620 1485.12 1593 1440 1584 1440"/>
    <polygon class="cls-2" points="1620 1494 1620 1485 1647 1440 1656 1440 1656 1449 1629 1494 1620 1494"/>
    <polygon class="cls-2" points="1656 1440 1656 1449 1683 1494 1692 1494 1692 1485.13 1665 1440 1656 1440"/>
    <rect class="cls-2" x="1413" y="1494" width="270" height="18"/>
    <rect class="cls-2" x="1413" y="1422" width="270" height="18"/>
    <rect class="cls-2" x="1348" y="978" width="20" height="216" transform="translate(587.53 -472.82) rotate(25.05)"/>
    <rect class="cls-2" x="1731.57" y="977.7" width="20" height="216" transform="translate(623.48 -635.25) rotate(25.05)"/>
    <path class="cls-6" d="M1411,792s130.33,175.5,276,0"/>
    <line class="cls-6" x1="1549" y1="872.65" x2="1548" y2="1422"/>
    <line class="cls-6" x1="1440" y1="823" x2="1440" y2="1422"/>
    <line class="cls-6" x1="1656.5" y1="823" x2="1656.5" y2="1422"/>
    <g>
      <line class="cls-7" x1="1300.51" y1="648" x2="1297.51" y2="1809.5"/>
      <line class="cls-10" x1="1300.51" y1="648" x2="1297.51" y2="1809.5"/>
    </g>
    <line class="cls-6" x1="1494.5" y1="857.87" x2="1494" y2="1422"/>
    <line class="cls-6" x1="1599.77" y1="861.06" x2="1599.27" y2="1425.2"/>
    <path class="cls-5" d="M1298,792s-224.78,518.14-793,632"/>
    <path class="cls-5" d="M1797.95,791.86c37.75,87.01,243.04,521.8,793,632"/>
    <line class="cls-5" x1="648" y1="1384.86" x2="648" y2="1424"/>
    <line class="cls-5" x1="720" y1="1356.59" x2="720" y2="1424"/>
    <line class="cls-5" x1="792" y1="1321.91" x2="792" y2="1424"/>
    <line class="cls-5" x1="864" y1="1280.16" x2="864" y2="1424"/>
    <line class="cls-5" x1="936" y1="1230.5" x2="936" y2="1424"/>
    <line class="cls-5" x1="1008" y1="1171.89" x2="1008" y2="1424"/>
    <line class="cls-5" x1="1080" y1="1102.81" x2="1080" y2="1424"/>
    <line class="cls-5" x1="1152" y1="1021.02" x2="1152" y2="1424"/>
    <line class="cls-5" x1="1224" y1="922.55" x2="1224" y2="1424"/>
    <line class="cls-5" x1="1872" y1="930" x2="1872" y2="1423.86"/>
    <line class="cls-5" x1="1944" y1="1032" x2="1944" y2="1423.86"/>
    <line class="cls-5" x1="2016" y1="1113" x2="2016" y2="1423.86"/>
    <line class="cls-5" x1="2088" y1="1181" x2="2088" y2="1423.86"/>
    <line class="cls-5" x1="2157" y1="1236" x2="2157.47" y2="1425.2"/>
    <line class="cls-5" x1="2232" y1="1286" x2="2232" y2="1425.2"/>
    <line class="cls-5" x1="2304" y1="1326" x2="2304" y2="1425.2"/>
    <line class="cls-5" x1="2376" y1="1359" x2="2376" y2="1425.2"/>
    <line class="cls-5" x1="2448" y1="1384.74" x2="2448" y2="1425.2"/>
    <rect class="cls-2" x="490" y="1512" width="27" height="360"/>
    <polygon class="cls-2" points="765 1512 792 1512 531 1728 531 1701.04 765 1512"/>
    <polyline class="cls-2" points="566.91 1512 585.3 1512 585.3 1657.17 566.91 1672.02"/>
    <polyline class="cls-2" points="638.91 1512 657.17 1512 657.17 1599.11 638.91 1613.86"/>
    <polyline class="cls-2" points="711.17 1512 728.91 1512 728.91 1541.15 711.17 1555.48"/>
    <rect class="cls-2" x="2565" y="1512" width="27" height="360"/>
    <polygon class="cls-2" points="2330.99 1512 2304 1512 2564.91 1728.11 2564.91 1701.13 2330.99 1512"/>
    <polyline class="cls-2" points="2529 1512 2510 1512 2510 1657.26 2529 1672.13"/>
    <polyline class="cls-2" points="2457 1512 2439 1512 2438.74 1599.22 2457 1613.97"/>
    <polyline class="cls-2" points="2384 1512 2366 1512 2366 1541.9 2384 1556.59"/>
    <line class="cls-10" x1="1296" y1="648" x2="1296" y2="1809"/>
    <g>
      <line class="cls-7" x1="1687.07" y1="647.79" x2="1683.5" y2="1809.5"/>
      <line class="cls-10" x1="1687.07" y1="647.79" x2="1683.5" y2="1809.5"/>
    </g>
    <line class="cls-7" x1="1269" y1="1813.5" x2="1440" y2="1813.5"/>
    <line class="cls-7" x1="1273.5" y1="1809" x2="1273.5" y2="1872"/>
    <line class="cls-7" x1="1660.5" y1="1810" x2="1660.5" y2="1873"/>
    <line class="cls-7" x1="1657" y1="1813.5" x2="1828" y2="1813.5"/>
    <line class="cls-7" x1="504" y1="1426.5" x2="1294" y2="1426.5"/>
    <line class="cls-7" x1="1547.5" y1="1426.5" x2="1681" y2="1426.5"/>
    <path class="cls-7" d="M2452,1440.5"/>
    <path class="cls-7" d="M2374,1441.5"/>
    <line class="cls-7" x1="1945" y1="1426.5" x2="2592" y2="1426.5"/>
    <line class="cls-7" x1="508.5" y1="1872.5" x2="508.5" y2="1494"/>
    <path class="cls-7" d="M2569.5,1494.4"/>
    <path class="cls-7" d="M2569.5,1872.9"/>
    <rect class="cls-10" x="2565" y="1494" width="9" height="378"/>
    <text class="cls-3" transform="translate(888.61 2121.41)"><tspan x="0" y="0">Dealoff.to</tspan></text>
  </g>
</svg>